<?xml version="1.0" standalone="no"?>
<!DOCTYPE svg PUBLIC "-//W3C//DTD SVG 20010904//EN"
 "http://www.w3.org/TR/2001/REC-SVG-20010904/DTD/svg10.dtd">
<svg version="1.0" xmlns="http://www.w3.org/2000/svg"
 width="512.000000pt" height="512.000000pt" viewBox="0 0 512.000000 512.000000"
 preserveAspectRatio="xMidYMid meet">
<metadata>
Created by potrace 1.14, written by Peter Selinger 2001-2017
</metadata>
<g transform="translate(0.000000,512.000000) scale(0.100000,-0.100000)"
fill="#000000" stroke="none">
<path d="M3227 4271 c2 -8 -2 -11 -12 -7 -8 3 -15 0 -15 -7 0 -8 -3 -8 -9 2
-7 11 -10 10 -14 -5 -4 -16 -5 -17 -6 -1 0 9 -6 17 -12 17 -5 0 -7 -6 -3 -12
6 -10 4 -10 -7 -2 -8 6 -23 9 -34 7 -11 -3 -27 -5 -36 -6 -10 -1 -15 -7 -11
-16 4 -10 1 -12 -8 -6 -10 6 -12 4 -7 -9 6 -14 3 -15 -14 -5 -19 10 -20 9 -8
-13 11 -20 10 -21 -3 -10 -13 10 -18 9 -29 -5 -13 -16 -12 -17 4 -4 11 9 17
10 17 2 0 -6 -7 -14 -16 -18 -8 -3 -13 -12 -9 -21 4 -12 3 -12 -8 -3 -12 9
-14 6 -12 -14 3 -21 1 -23 -15 -15 -13 7 -21 7 -26 -2 -4 -6 -3 -8 2 -5 6 3
16 -3 22 -14 12 -18 11 -19 -6 -10 -27 15 -45 -5 -30 -33 10 -19 10 -20 -6 -7
-9 8 -19 11 -23 7 -3 -3 -1 -6 4 -6 6 0 10 -6 9 -12 -3 -24 -18 -39 -33 -34
-8 3 -11 1 -8 -4 3 -6 1 -10 -5 -10 -6 0 -9 -4 -6 -9 3 -5 -3 -11 -14 -14 -14
-4 -18 -10 -13 -23 4 -12 3 -15 -5 -10 -8 5 -10 1 -5 -10 5 -14 2 -16 -15 -12
-19 5 -20 4 -11 -13 9 -17 7 -19 -16 -15 -22 4 -25 3 -15 -10 15 -17 24 -19
14 -2 -4 7 -3 8 5 4 17 -11 4 -25 -19 -21 -13 2 -17 -1 -13 -11 3 -7 -2 -17
-11 -20 -9 -3 -16 -10 -16 -16 0 -5 6 -6 13 -3 6 4 -2 -7 -20 -23 -19 -19 -27
-34 -22 -39 6 -6 4 -10 -6 -10 -8 0 -15 5 -15 10 0 6 -3 7 -6 4 -4 -4 -1 -14
7 -24 8 -9 9 -14 3 -10 -6 3 -17 -5 -24 -18 -14 -26 -30 -33 -30 -13 0 6 -3 8
-6 5 -4 -4 -1 -15 7 -24 7 -10 10 -15 5 -11 -12 10 -39 -20 -30 -34 5 -7 2 -9
-8 -5 -15 5 -48 -20 -48 -38 0 -4 9 2 19 14 11 12 22 18 25 13 3 -6 -1 -13
-10 -16 -9 -3 -14 -13 -11 -21 5 -11 1 -12 -18 -5 -13 5 -27 6 -29 1 -8 -13 4
-20 22 -14 10 4 13 2 8 -5 -4 -7 -14 -12 -23 -12 -13 0 -13 -3 -3 -15 11 -13
10 -14 -4 -9 -9 3 -16 11 -16 17 0 6 -3 7 -6 4 -4 -4 -1 -14 7 -24 9 -11 10
-14 2 -9 -7 4 -13 3 -13 -3 0 -5 -9 -12 -20 -16 -11 -3 -19 -12 -17 -18 1 -7
-4 -11 -11 -9 -8 1 -11 -2 -6 -9 5 -9 12 -7 23 7 9 10 23 20 31 22 8 2 -1 -10
-20 -27 -19 -17 -41 -30 -47 -31 -7 0 -13 -4 -13 -9 0 -11 19 -9 40 4 13 8 13
6 2 -8 -8 -9 -17 -16 -20 -15 -22 2 -31 -4 -25 -19 4 -11 3 -14 -5 -9 -7 4
-12 2 -12 -4 0 -6 -5 -8 -12 -4 -8 5 -7 0 2 -11 9 -11 10 -16 3 -11 -18 10
-39 -4 -22 -15 11 -7 11 -9 1 -9 -8 0 -10 -5 -6 -12 5 -9 2 -8 -9 1 -15 12
-17 12 -11 -4 6 -14 4 -16 -6 -10 -10 6 -12 4 -7 -9 5 -11 3 -15 -5 -10 -8 5
-9 2 -5 -10 5 -14 3 -17 -8 -12 -14 5 -21 -18 -16 -48 1 -5 -10 -1 -25 9 -15
10 -23 12 -18 4 4 -7 8 -23 9 -36 1 -22 0 -22 -25 -6 -24 16 -25 16 -8 -3 15
-18 15 -20 -2 -41 -10 -13 -22 -23 -26 -23 -4 0 3 12 17 27 13 15 17 22 8 15
-9 -6 -20 -8 -24 -4 -5 4 -5 2 -1 -5 3 -6 2 -14 -4 -18 -7 -4 -6 -14 2 -28 11
-21 10 -21 -7 -7 -11 9 -16 10 -11 3 4 -7 2 -13 -3 -13 -6 0 -11 -5 -11 -11 0
-5 5 -7 12 -3 7 4 8 3 4 -4 -4 -6 -13 -9 -21 -5 -10 3 -13 1 -10 -9 4 -9 0
-15 -9 -15 -8 0 -13 4 -10 9 3 4 -1 8 -8 8 -10 0 -10 2 1 9 10 7 11 9 1 13 -8
2 -14 12 -16 21 -3 22 1 21 23 -3 18 -18 19 -19 19 0 0 10 -3 17 -6 15 -3 -2
-14 3 -25 11 -10 8 -14 14 -8 14 5 0 9 16 8 35 -1 25 2 32 10 25 9 -7 10 0 6
28 -5 27 -3 41 9 50 8 8 10 11 4 8 -7 -3 -15 1 -18 10 -3 8 -2 13 3 10 5 -3
12 1 15 10 9 24 7 28 -7 16 -18 -15 -15 34 3 51 10 10 11 9 5 -2 -6 -10 -4
-12 5 -6 10 6 10 11 -3 20 -24 17 -21 27 6 20 12 -4 17 -3 11 2 -7 4 -10 29
-9 57 2 27 -1 43 -5 36 -4 -7 -7 3 -6 23 1 28 4 33 14 24 10 -8 12 -7 10 4 -2
8 -7 17 -13 21 -6 5 -4 8 5 8 12 0 13 2 1 9 -10 7 -11 12 -1 27 11 18 11 18 5
-1 -5 -17 -4 -18 7 -7 11 11 10 16 -6 28 -17 12 -17 14 -4 14 10 0 16 8 15 19
0 11 -5 17 -9 15 -5 -3 -5 -10 -2 -16 4 -7 2 -8 -5 -4 -9 6 -9 11 -1 21 6 7 9
25 6 39 -3 14 0 26 6 26 5 0 7 -8 4 -17 -4 -10 -3 -14 1 -9 9 9 11 76 2 70 -8
-5 -4 84 4 93 4 3 2 12 -4 19 -8 10 -5 11 13 7 l23 -5 -23 17 c-15 11 -20 21
-14 28 5 7 8 20 6 30 -1 12 2 17 10 14 7 -3 13 1 13 8 0 7 -6 11 -14 8 -9 -4
-11 0 -6 13 3 11 11 22 16 25 5 3 1 9 -8 12 -10 5 -14 3 -9 -5 4 -6 3 -8 -3
-5 -5 3 -9 16 -8 29 1 13 -4 35 -12 50 -12 24 -11 27 2 22 8 -4 15 -1 15 6 0
6 -4 9 -9 5 -5 -3 -17 3 -27 12 -21 22 -36 23 -50 4 -9 -11 -12 -12 -19 -1 -5
8 -4 11 2 7 5 -3 10 0 10 8 0 8 -4 15 -9 15 -4 0 -8 -5 -8 -11 0 -5 -4 -8 -9
-4 -5 3 -12 1 -16 -4 -3 -6 -12 -8 -20 -4 -8 3 -15 0 -15 -6 0 -6 -5 -11 -11
-11 -5 0 -7 6 -3 13 5 7 0 6 -11 -3 -10 -8 -16 -10 -12 -3 8 13 -18 12 -30 -2
-5 -4 -1 -4 7 0 13 8 13 7 1 -8 -16 -20 -22 -22 -18 -6 1 6 -4 14 -12 17 -8 2
-11 0 -8 -5 3 -5 0 -10 -8 -10 -8 0 -12 4 -10 8 3 4 -5 5 -17 1 -16 -4 -19 -2
-13 8 5 9 4 11 -4 6 -6 -4 -8 -12 -5 -18 5 -7 0 -9 -14 -6 -12 4 -20 2 -16 -3
3 -5 0 -9 -5 -9 -6 0 -11 5 -11 11 0 5 -5 7 -10 4 -6 -4 -7 -11 -4 -17 4 -6 2
-8 -4 -4 -5 3 -12 3 -15 -1 -2 -5 -2 -3 -1 4 2 7 -2 15 -8 19 -7 4 -8 3 -4 -4
4 -7 2 -12 -4 -12 -6 0 -8 -5 -4 -12 5 -7 3 -8 -7 -2 -24 15 -39 13 -49 -7 -6
-10 -18 -19 -26 -19 -9 0 -12 -5 -8 -12 5 -9 2 -9 -9 1 -10 8 -17 9 -17 3 0
-6 5 -14 10 -17 6 -4 7 -11 4 -17 -5 -7 -12 -4 -21 7 -19 27 -16 4 4 -24 9
-14 11 -21 5 -17 -11 7 -17 -6 -13 -28 1 -5 -6 -5 -16 -2 -14 6 -15 4 -6 -5
14 -14 36 -2 27 14 -4 7 -3 8 1 4 12 -10 16 -39 5 -32 -5 3 -12 0 -17 -7 -11
-19 -13 -39 -2 -32 12 7 11 -7 -1 -26 -6 -9 -5 -20 3 -29 9 -11 9 -13 0 -8 -8
5 -11 0 -10 -13 1 -11 5 -20 10 -20 4 0 5 -5 2 -10 -5 -8 -12 -7 -23 2 -12 10
-11 7 3 -15 15 -23 16 -30 5 -40 -10 -9 -11 -9 -5 2 5 9 4 12 -3 7 -9 -5 -8
-12 0 -26 11 -16 9 -22 -7 -35 -13 -10 -14 -13 -4 -10 10 4 16 0 16 -10 0 -9
-6 -14 -13 -11 -8 3 -16 0 -20 -6 -5 -7 -2 -8 6 -3 10 6 12 4 7 -7 -3 -9 1
-25 9 -36 10 -15 11 -23 3 -28 -8 -5 -9 -3 -4 7 6 11 5 11 -5 2 -14 -13 -4
-37 12 -27 7 5 8 2 4 -5 -5 -7 -15 -10 -24 -6 -12 4 -11 1 4 -16 l19 -22 -25
13 c-21 11 -23 11 -14 -1 9 -12 11 -33 4 -41 -7 -10 -7 -37 1 -32 16 9 16 -41
1 -79 -15 -37 -15 -37 6 -31 9 2 7 -1 -5 -7 -26 -14 -31 -34 -7 -25 13 5 14 4
6 -7 -7 -8 -8 -18 -4 -22 4 -5 -1 -5 -11 -2 -10 4 -16 3 -12 -2 3 -5 2 -11 -2
-14 -5 -2 -3 -2 4 -1 7 2 15 -1 18 -6 4 -6 -1 -10 -9 -10 -8 0 -18 -5 -22 -12
-4 -7 -3 -8 4 -4 7 4 12 3 12 -3 0 -5 -5 -13 -10 -16 -6 -3 -10 -11 -10 -17 0
-6 6 -6 15 2 9 7 18 10 22 6 3 -3 1 -6 -6 -6 -8 0 -11 -8 -8 -20 3 -11 0 -23
-5 -27 -6 -3 -8 -1 -4 5 3 6 1 14 -6 18 -7 4 -10 4 -6 -1 4 -4 3 -14 -3 -21
-7 -8 -6 -14 2 -20 8 -5 9 -3 4 6 -5 8 -4 11 3 6 7 -4 5 -17 -6 -39 -17 -34
-24 -80 -11 -71 4 2 7 -5 6 -16 -1 -12 -7 -18 -14 -16 -7 3 -15 0 -19 -6 -4
-6 -3 -8 3 -5 6 4 19 0 29 -8 18 -13 18 -14 2 -20 -10 -4 -18 -11 -18 -17 0
-5 4 -7 9 -4 10 7 9 -20 -2 -30 -4 -4 -1 -14 6 -22 10 -13 9 -14 -9 -4 -20 10
-21 9 -19 -18 1 -17 -2 -30 -9 -30 -6 0 -3 -5 6 -11 9 -5 15 -16 12 -24 -4 -8
-11 -12 -18 -8 -6 4 -4 -2 4 -12 8 -10 10 -16 3 -12 -6 4 -15 2 -19 -4 -4 -7
-3 -9 4 -5 6 3 13 2 17 -4 3 -5 -2 -10 -12 -10 -17 -1 -17 -1 0 -11 13 -8 15
-14 7 -29 -13 -23 -13 -33 -1 -25 5 3 13 1 16 -5 4 -6 3 -10 -2 -9 -4 1 -15 1
-23 -1 -11 -1 -9 -4 5 -10 18 -8 19 -9 1 -9 -13 -1 -16 -6 -11 -18 12 -29 11
-58 -2 -58 -6 0 -15 -4 -20 -9 -4 -5 -3 -6 3 -3 13 8 40 -20 30 -30 -3 -3 -6
-1 -6 5 0 7 -8 12 -17 12 -11 0 -14 -3 -7 -8 6 -4 13 -15 17 -24 4 -12 2 -15
-8 -11 -8 3 -13 8 -10 12 2 4 -3 8 -11 8 -10 0 -8 -7 8 -25 13 -14 17 -22 11
-18 -7 4 -13 2 -13 -3 0 -6 4 -11 9 -11 8 0 8 -24 0 -40 -1 -3 -3 -25 -3 -50
-1 -25 -5 -46 -11 -47 -12 -2 -24 -35 -17 -47 8 -15 6 -75 -3 -83 -4 -5 -5 -1
0 7 5 8 4 12 0 7 -5 -4 -10 -17 -12 -29 -3 -17 -1 -19 11 -9 11 9 16 9 22 0 4
-7 3 -9 -3 -6 -16 10 -34 -18 -37 -55 -1 -18 -5 -39 -10 -47 -6 -10 -5 -12 2
-7 19 11 14 -5 -5 -20 -17 -13 -17 -14 0 -8 12 4 17 1 17 -11 0 -10 -5 -15
-13 -12 -10 4 -13 -3 -12 -24 1 -16 -3 -29 -9 -29 -6 0 -4 -5 4 -10 8 -5 12
-10 8 -10 -4 0 -3 -14 2 -30 5 -17 5 -28 0 -25 -4 3 -11 -2 -14 -11 -9 -23 -7
-31 3 -16 7 11 9 10 14 -3 5 -11 3 -14 -5 -9 -8 5 -9 2 -4 -11 5 -15 4 -16 -9
-5 -13 11 -14 10 -8 -6 6 -17 5 -18 -13 -4 -18 14 -18 14 -1 -6 21 -26 21 -32
0 -36 -15 -3 -14 -5 5 -10 15 -4 20 -2 16 5 -4 7 -1 6 7 -1 12 -11 11 -15 -4
-23 -9 -6 -15 -15 -12 -20 4 -5 11 -7 16 -4 5 4 9 1 9 -4 0 -6 -5 -11 -11 -11
-6 0 -8 -7 -5 -16 3 -9 2 -12 -5 -9 -6 4 -8 14 -5 22 4 8 1 11 -5 8 -6 -4 -8
-13 -6 -19 3 -7 1 -19 -3 -27 -5 -8 -4 -19 2 -26 6 -7 7 -13 2 -13 -5 0 -2 -5
6 -11 12 -8 9 -9 -10 -4 l-25 6 25 -15 c14 -9 19 -15 13 -16 -7 0 -13 -7 -13
-16 0 -9 5 -12 13 -8 6 4 4 -2 -6 -13 -13 -14 -15 -23 -7 -28 7 -4 8 -11 2
-18 -5 -7 -8 -20 -7 -29 3 -15 0 -16 -18 -6 -21 10 -21 10 -6 -8 22 -26 32
-45 22 -42 -4 2 -8 -1 -8 -7 0 -5 3 -9 8 -8 14 5 7 -15 -9 -21 -10 -4 -13 -2
-8 7 4 6 -2 4 -14 -7 -22 -19 -21 -36 3 -36 7 0 16 -7 19 -16 6 -15 4 -15 -11
-3 -9 8 -14 9 -10 2 4 -6 3 -14 -3 -18 -13 -8 -13 -25 1 -25 5 0 7 4 4 10 -3
5 -1 10 4 10 12 0 9 -35 -4 -47 -4 -5 -5 -2 -1 5 4 6 2 12 -3 12 -10 0 -13
-11 -13 -45 0 -31 2 -36 15 -29 6 4 5 -1 -4 -12 -9 -10 -20 -26 -24 -34 -8
-13 -7 -13 8 -1 9 7 17 9 17 3 0 -5 -7 -15 -15 -22 -8 -7 -13 -16 -10 -20 3
-5 1 -11 -4 -14 -5 -4 -8 -18 -5 -32 3 -18 1 -23 -7 -18 -8 4 -9 3 -5 -5 14
-23 17 -61 4 -57 -7 1 -10 1 -5 -1 4 -3 7 -9 7 -14 0 -6 -6 -7 -12 -3 -9 5 -9
2 1 -9 13 -17 26 -24 17 -9 -2 4 2 16 10 27 8 10 14 14 14 9 0 -6 -5 -15 -12
-22 -7 -7 -8 -12 -4 -12 5 0 3 -7 -5 -16 -10 -13 -10 -17 2 -25 10 -6 10 -9 2
-9 -7 0 -13 -7 -13 -15 0 -8 -5 -15 -11 -15 -5 0 -7 -5 -4 -10 4 -6 12 -7 18
-4 9 5 9 4 0 -6 -6 -7 -9 -19 -6 -28 5 -10 2 -13 -6 -8 -7 5 -10 15 -7 23 3 8
1 11 -5 8 -5 -4 -7 -15 -4 -25 3 -10 2 -21 -4 -24 -5 -3 -8 -14 -7 -24 2 -9
-2 -20 -8 -24 -7 -5 -4 -8 8 -8 12 0 16 5 13 14 -4 10 -1 13 9 9 8 -3 12 -8
10 -11 -3 -3 0 -12 7 -21 10 -14 10 -14 -5 -3 -19 15 -32 2 -34 -36 -1 -18 3
-21 20 -17 15 5 17 4 8 -3 -17 -12 -17 -22 0 -33 11 -7 11 -9 -1 -9 -11 0 -11
-3 0 -17 13 -15 12 -15 -7 -5 -16 9 -21 8 -21 -3 0 -8 3 -12 7 -10 4 2 12 -7
18 -20 l12 -25 -28 16 -27 17 29 -26 c26 -24 27 -32 4 -28 -4 0 -5 -6 -1 -15
4 -11 9 -12 16 -5 6 6 15 11 20 11 5 0 1 -8 -9 -17 -13 -14 -14 -18 -3 -22 8
-3 14 -13 14 -22 0 -8 8 -23 18 -33 19 -20 24 -8 5 14 -11 12 -10 12 2 4 8 -6
25 -9 38 -8 12 0 22 -3 22 -8 0 -5 5 -6 10 -3 6 4 7 11 4 17 -4 7 -2 8 5 4 6
-4 19 -2 28 6 9 7 14 8 10 2 -4 -7 1 -14 12 -17 14 -3 18 -1 14 9 -3 8 0 14 6
14 6 0 11 -6 11 -12 1 -7 6 -3 13 8 10 18 14 19 24 9 6 -7 9 -16 6 -19 -4 -3
-1 -6 6 -6 7 0 11 7 8 15 -4 8 -2 17 3 20 6 4 10 2 10 -4 0 -5 9 -9 19 -8 11
0 17 5 15 9 -3 5 -11 5 -17 2 -7 -4 -9 -3 -4 1 4 5 15 10 25 11 9 1 26 5 37
10 18 7 18 6 6 -9 -7 -9 -18 -14 -24 -10 -6 3 -7 1 -3 -5 9 -16 34 -4 42 20 3
11 12 17 19 14 8 -3 19 2 25 9 8 10 21 13 38 8 15 -3 23 -2 19 4 -3 5 0 10 8
10 8 0 12 -5 9 -11 -3 -6 3 -2 13 10 22 25 64 44 43 19 -7 -8 -17 -12 -24 -8
-6 3 -8 3 -4 -2 4 -4 2 -15 -4 -24 -7 -9 1 -4 18 12 17 15 34 24 39 20 4 -5 2
3 -5 16 -6 13 -8 21 -2 17 5 -3 18 4 28 15 l18 20 19 -23 c18 -23 18 -22 1 12
-16 34 -16 34 1 20 17 -14 17 -14 7 7 -9 16 -9 24 0 29 6 4 8 3 4 -4 -3 -6 -2
-13 3 -17 10 -6 5 40 -6 58 -4 6 0 8 10 4 12 -4 14 -2 10 10 -5 12 -3 14 8 8
12 -8 12 -6 0 8 -14 18 -26 23 -16 8 3 -5 2 -12 -3 -15 -4 -2 -8 13 -7 34 0
21 2 38 5 38 18 -1 30 3 30 12 0 5 -8 7 -17 3 -16 -6 -16 -4 1 15 18 21 18 21
-3 17 -12 -2 -19 0 -16 6 4 5 13 9 20 9 9 0 12 6 9 15 -4 8 -11 12 -18 8 -6
-3 -6 -1 2 8 15 16 16 33 0 23 -7 -4 -8 -3 -4 5 4 6 13 8 19 4 7 -4 5 2 -3 12
-8 10 -10 16 -4 12 7 -4 14 2 17 13 3 11 1 20 -4 20 -5 0 -9 -5 -9 -11 0 -5
-5 -7 -11 -3 -8 5 -8 9 1 14 8 5 9 13 4 21 -6 11 -4 11 10 0 15 -12 17 -12 14
0 -2 8 -7 17 -12 20 -5 4 -6 19 -2 34 6 24 9 25 24 13 15 -11 15 -11 5 3 -10
12 -10 18 0 30 10 12 10 12 -3 1 -22 -19 -32 -14 -18 8 10 16 10 24 0 41 -8
12 -9 18 -3 15 5 -4 12 -2 15 3 4 5 -2 12 -11 15 -10 3 -5 4 10 2 l28 -3 -21
19 c-20 19 -20 21 -4 45 16 25 16 26 -2 20 -18 -7 -18 -6 0 8 20 15 20 15 0
16 -15 1 -14 3 6 9 14 4 18 8 10 9 -15 1 -16 26 -7 114 2 20 13 23 20 5 3 -7
4 -3 4 10 -1 12 -6 21 -12 18 -11 -4 -14 41 -4 59 3 6 5 22 4 38 -1 15 2 27 8
27 5 0 6 -7 3 -16 -3 -9 -2 -12 5 -9 5 4 7 15 4 25 -3 10 -1 21 5 25 8 5 7 11
-2 22 -19 23 -20 53 -2 53 8 0 12 5 9 10 -4 6 -11 8 -16 4 -6 -3 -5 3 2 14 7
12 17 18 21 16 16 -10 8 9 -9 22 -17 13 -17 13 0 14 9 0 17 4 17 10 0 5 -8 7
-17 3 -16 -6 -16 -4 1 15 10 12 24 19 30 15 6 -3 7 -2 3 3 -8 9 -12 10 -38 13
-6 0 -2 9 10 19 16 13 18 20 10 32 -9 13 -10 12 -5 -2 3 -10 0 -20 -7 -24 -7
-4 -9 -4 -5 1 4 4 3 17 -3 28 -8 14 -8 18 0 13 6 -4 14 0 17 8 3 9 11 13 17 9
6 -3 7 -1 3 6 -6 9 -12 9 -24 -1 -14 -11 -13 -8 2 16 15 24 16 28 3 23 -11 -4
-14 -2 -10 8 3 8 9 12 14 9 5 -3 9 2 9 11 0 9 -4 14 -8 11 -4 -2 -9 4 -9 15
-2 24 6 24 24 2 13 -16 13 -15 2 7 -9 18 -9 25 0 28 6 2 2 12 -11 23 l-23 20
25 -6 c14 -4 20 -3 14 2 -13 10 -25 63 -13 63 4 0 9 -3 12 -7 2 -5 2 -3 1 4
-2 6 2 14 9 17 7 4 1 4 -13 2 -24 -5 -24 -4 -6 9 11 8 14 15 8 15 -7 0 -12 5
-12 11 0 5 5 7 11 3 8 -5 8 -1 0 14 -9 17 -8 23 5 30 13 7 14 13 5 31 -7 11
-8 21 -4 21 4 0 1 5 -7 10 -11 7 -11 10 -2 10 7 0 11 4 7 9 -3 5 -1 12 5 16 6
4 8 10 6 14 -3 4 4 8 15 8 10 1 19 -3 19 -8 0 -6 -4 -8 -9 -4 -10 6 -24 -11
-27 -32 -1 -7 2 -15 6 -18 5 -3 7 3 5 15 -5 26 11 35 25 13 10 -16 11 -16 6
-1 -3 10 0 20 6 24 6 4 8 3 5 -4 -4 -5 9 -26 28 -46 19 -20 35 -41 35 -46 0
-15 20 -12 20 3 1 6 6 2 13 -11 7 -12 17 -19 22 -15 4 4 5 2 1 -4 -12 -21 -16
-54 -5 -48 5 4 7 11 4 16 -4 5 -2 9 3 9 6 0 12 -7 16 -15 3 -8 0 -15 -6 -15
-6 0 -8 -3 -5 -6 4 -4 14 -1 24 7 9 8 14 9 10 3 -8 -14 16 -37 28 -26 5 4 5 1
1 -6 -6 -10 -11 -10 -22 -1 -8 6 -17 9 -21 5 -3 -3 -1 -6 6 -6 7 0 10 -4 7 -9
-4 -5 5 -8 19 -7 21 3 23 1 14 -17 -8 -14 -8 -18 0 -13 6 4 11 2 11 -3 0 -6 5
-11 11 -11 8 0 8 4 0 14 -9 11 -9 16 0 22 7 4 9 3 5 -4 -3 -6 -2 -13 3 -17 6
-3 7 -13 4 -22 -4 -11 -3 -14 5 -9 7 4 12 1 12 -9 0 -9 -4 -14 -8 -11 -5 3 -9
-1 -9 -9 0 -11 4 -12 14 -3 10 8 19 6 38 -12 14 -13 25 -28 24 -34 0 -6 -3 -5
-6 2 -2 6 -10 9 -15 6 -7 -5 -8 -2 -3 6 6 9 4 11 -5 5 -8 -5 -11 -4 -6 3 3 6
3 13 -2 16 -5 3 -9 -2 -9 -10 0 -8 14 -25 31 -37 17 -11 35 -27 39 -34 5 -7
12 -11 18 -8 5 3 6 -1 3 -9 -3 -9 -2 -16 4 -16 5 0 12 -9 15 -21 3 -12 10 -18
15 -15 16 10 7 -24 -9 -36 -11 -8 -11 -9 4 -4 20 6 22 -4 5 -24 -11 -12 -10
-12 5 -1 18 14 20 10 20 -41 0 -10 4 -15 8 -12 5 3 7 9 4 14 -3 4 2 11 11 14
10 4 13 2 8 -6 -4 -6 2 -18 12 -26 18 -13 18 -14 -6 -7 -23 7 -23 7 -7 -9 9
-10 14 -22 11 -28 -4 -7 -2 -8 5 -4 6 4 8 13 4 19 -4 7 -1 7 9 -1 9 -8 14 -20
11 -29 -4 -9 5 -24 23 -40 19 -16 22 -21 8 -14 -16 8 -21 7 -21 -4 0 -8 5 -13
11 -12 6 1 10 -6 10 -15 -1 -10 2 -15 7 -12 5 3 9 0 9 -6 0 -6 4 -9 9 -5 5 3
13 0 17 -6 4 -8 3 -9 -4 -5 -7 4 -12 2 -12 -3 0 -6 5 -11 12 -11 6 0 3 -7 -8
-15 -18 -14 -18 -14 4 -8 24 6 29 -6 10 -26 -10 -11 -10 -13 0 -7 11 7 17 -12
13 -37 -1 -5 3 -6 8 -2 7 4 7 15 1 30 -6 15 -6 25 0 25 5 0 10 -10 12 -23 2
-12 9 -21 15 -20 7 2 10 -4 7 -12 -4 -8 -10 -13 -14 -10 -5 3 -12 0 -16 -6 -4
-7 -3 -9 3 -6 18 11 55 -26 48 -46 -4 -9 -11 -17 -17 -17 -5 0 -6 -5 -3 -10 4
-6 14 -1 24 11 13 16 20 19 25 10 4 -7 2 -10 -5 -9 -6 2 -14 -3 -17 -11 -2 -8
0 -11 6 -7 6 4 8 -2 5 -14 -4 -16 -2 -19 11 -14 9 4 16 3 15 -2 -1 -5 0 -12 1
-16 1 -5 3 -12 4 -18 0 -5 10 -16 21 -25 16 -12 16 -14 3 -9 -14 5 -18 1 -16
-19 1 -14 6 -23 10 -21 5 3 5 11 2 17 -4 7 -4 9 1 5 5 -5 10 -23 11 -40 5 -53
7 -56 21 -51 8 3 13 0 11 -8 -2 -8 2 -13 9 -12 7 2 10 -8 8 -27 -3 -19 0 -28
8 -26 7 1 9 1 5 -1 -5 -3 -8 -9 -8 -14 0 -6 6 -7 13 -3 10 6 10 4 0 -7 -7 -7
-13 -18 -13 -23 0 -6 5 -4 10 4 9 13 10 13 10 0 0 -9 -6 -22 -12 -29 -7 -7 -8
-12 -3 -11 23 5 35 -1 35 -16 0 -13 3 -14 14 -5 11 9 16 9 22 0 4 -7 3 -10 -2
-7 -5 3 -14 0 -21 -7 -10 -10 -9 -14 3 -19 8 -3 12 -10 9 -16 -3 -5 -1 -10 4
-10 14 0 14 13 -1 28 -9 9 -9 12 0 12 7 0 12 -5 12 -11 0 -5 4 -7 10 -4 5 3 8
0 5 -7 -3 -7 0 -20 5 -28 8 -12 12 -13 19 -2 6 10 11 6 19 -16 6 -17 7 -33 4
-37 -4 -3 2 -3 12 1 15 6 17 4 11 -7 -5 -8 2 -5 15 6 l23 20 -11 -21 c-9 -16
-8 -21 3 -21 8 0 13 3 12 6 -1 3 2 6 8 6 5 0 8 -7 7 -17 -2 -9 1 -19 6 -22 6
-3 9 2 8 11 -1 12 8 17 32 19 17 1 32 -3 32 -8 0 -5 -4 -7 -8 -4 -5 3 -9 -1
-9 -9 0 -11 4 -12 13 -4 7 6 19 7 26 3 10 -6 11 -5 1 7 -10 13 -10 16 2 16 8
0 15 -4 15 -8 0 -4 9 -6 20 -4 11 2 25 -4 31 -13 8 -13 9 -13 6 -2 -9 29 16
48 70 55 13 1 30 8 39 16 16 13 16 12 5 -9 -11 -21 -11 -22 7 -11 11 7 18 20
15 28 -2 9 2 6 9 -5 12 -20 14 -20 28 -6 13 14 12 15 -3 9 -11 -4 -16 -3 -12
3 3 6 12 10 19 10 8 0 19 6 25 14 14 17 47 14 43 -4 -1 -6 2 -9 8 -5 7 4 7 12
0 26 -13 23 -7 25 15 3 14 -15 15 -14 11 11 -4 21 -2 24 8 16 10 -8 18 -6 31
9 10 11 14 20 9 20 -5 0 -2 5 6 11 12 8 9 9 -9 4 -21 -6 -22 -5 -10 8 8 8 18
12 23 9 5 -3 5 1 0 9 -12 20 -17 62 -5 55 13 -8 7 24 -6 32 -5 4 -9 15 -8 24
2 12 -3 15 -17 13 -15 -3 -18 1 -16 18 2 16 -2 22 -15 21 -15 -2 -16 1 -5 14
8 10 9 13 1 9 -17 -11 -45 3 -34 17 6 7 4 18 -5 30 -8 11 -14 16 -14 10 0 -5
-5 -2 -10 6 -5 8 -7 24 -4 35 4 16 3 17 -5 5 -10 -13 -15 -8 -12 13 0 4 -4 7
-10 7 -6 0 -9 9 -6 20 3 11 2 18 -2 16 -4 -3 -15 4 -24 15 -19 21 -9 26 13 6
12 -10 12 -9 1 5 -7 9 -9 23 -5 30 4 7 4 10 -1 6 -4 -4 -15 -2 -24 5 -14 10
-14 10 -4 -4 10 -13 10 -16 -1 -16 -15 0 -16 14 -2 36 7 11 5 13 -6 8 -21 -8
-30 3 -17 20 9 10 8 13 0 13 -7 0 -17 13 -22 30 -6 16 -15 28 -19 25 -4 -3 -7
3 -6 13 0 9 -5 16 -12 14 -6 -1 -11 1 -11 5 4 27 -3 63 -11 58 -6 -3 -7 1 -4
9 3 9 11 13 18 9 6 -4 5 1 -3 10 -7 9 -19 17 -25 17 -6 0 -5 -4 3 -9 8 -5 9
-11 3 -15 -16 -9 -25 13 -13 28 8 10 7 17 -6 27 -15 12 -16 12 -9 -1 4 -8 -1
-4 -12 10 -16 19 -18 28 -9 39 10 12 9 14 -5 8 -12 -4 -15 -2 -11 9 3 8 -1 14
-10 14 -8 0 -18 7 -21 16 -3 8 -2 12 4 9 6 -3 10 -1 10 5 0 6 4 9 8 6 5 -3 9
1 9 7 0 7 -10 14 -21 15 -17 1 -18 -1 -6 -8 8 -5 10 -10 4 -10 -18 0 -24 13
-12 27 9 11 7 12 -8 6 -17 -6 -18 -5 -4 12 9 11 10 16 3 11 -12 -7 -18 5 -14
27 1 5 -2 6 -6 4 -5 -3 -15 2 -23 11 -13 14 -12 15 3 9 9 -3 19 -1 23 5 4 7 3
8 -4 4 -7 -4 -12 -2 -12 4 0 6 -4 8 -10 5 -5 -3 -10 -1 -10 4 0 6 5 11 12 11
6 0 8 3 4 7 -4 5 -14 -1 -22 -11 -16 -23 -19 -14 -4 14 8 15 6 21 -7 29 -10 6
-13 11 -8 11 6 0 4 4 -4 9 -13 8 -13 12 0 27 8 10 9 15 3 11 -11 -6 -39 17
-39 32 0 3 -4 5 -8 3 -5 -1 -6 6 -2 17 3 11 1 22 -4 26 -6 3 -8 0 -5 -8 3 -8
2 -17 -3 -20 -5 -3 -10 6 -11 19 -2 26 -25 57 -35 48 -3 -4 -4 11 -3 32 2 22
2 33 -1 27 -6 -18 -20 -16 -20 2 0 8 5 15 10 15 6 0 7 3 4 6 -4 4 -13 1 -22
-6 -8 -7 -15 -9 -16 -4 0 5 -2 22 -3 37 -1 16 -7 32 -14 36 -7 4 -11 14 -9 22
2 8 2 11 0 7 -3 -4 -11 -1 -20 7 -8 8 -20 12 -26 8 -7 -3 -9 -3 -5 2 4 4 3 14
-3 21 -7 8 -6 14 2 20 7 4 9 3 6 -3 -4 -6 1 -17 11 -24 15 -12 15 -12 5 1 -6
8 -12 20 -13 25 -1 6 -11 9 -23 7 -18 -2 -19 0 -7 8 14 9 7 14 -13 11 -5 -1
-5 3 -2 10 4 6 -2 17 -14 25 -12 9 -19 19 -16 24 3 4 -2 11 -10 14 -8 3 -14
11 -13 18 2 7 -2 12 -7 11 -6 -1 -11 7 -11 18 0 19 1 19 13 3 7 -10 13 -13 13
-7 0 20 -25 33 -40 20 -10 -9 -11 -9 -6 1 4 6 2 12 -3 12 -6 0 -10 5 -9 12 2
7 -3 13 -9 14 -7 1 -16 2 -19 3 -4 0 -1 8 6 16 10 12 10 15 -4 15 -9 0 -16 -5
-16 -11 0 -5 -5 -7 -11 -4 -6 5 -4 11 7 19 13 10 14 15 4 21 -9 6 -11 4 -5 -5
5 -9 4 -11 -3 -6 -7 4 -12 14 -12 22 0 8 -7 17 -15 20 -9 4 -14 14 -13 23 2 9
-2 15 -9 14 -6 -1 -14 5 -17 13 -4 11 -2 15 8 11 11 -5 13 0 6 24 -8 27 -7 28
12 18 11 -6 22 -8 26 -5 3 3 0 6 -8 6 -10 0 -10 4 1 17 12 14 12 16 -1 9 -13
-7 -13 -6 0 6 8 7 16 20 18 28 2 8 10 22 19 30 9 8 13 10 9 3 -3 -6 -2 -14 3
-17 5 -4 8 5 6 19 -1 17 5 31 17 40 13 8 17 18 12 27 -5 9 -2 8 11 -2 11 -9
16 -10 11 -3 -9 16 50 103 69 103 8 0 15 5 15 11 0 5 -5 7 -12 3 -7 -5 -8 -3
-4 5 5 7 15 10 23 6 12 -4 13 -3 5 8 -14 17 -4 31 12 17 8 -6 12 -3 13 11 1
13 -2 17 -10 12 -7 -4 -6 1 2 11 8 9 19 15 26 13 6 -3 12 5 13 16 0 12 6 23
12 25 5 2 7 9 3 15 -4 7 1 6 10 -2 15 -12 17 -12 11 4 -5 13 -4 16 4 11 7 -4
12 -2 12 3 0 6 -5 11 -12 11 -15 0 0 15 15 15 7 1 11 6 10 13 -2 7 1 12 6 12
5 0 11 10 13 22 2 12 10 23 18 25 13 4 13 3 0 -7 -13 -10 -13 -11 0 -7 9 2 14
13 12 27 -2 14 0 20 7 16 6 -4 11 -2 11 4 0 6 5 8 10 5 6 -3 10 -2 10 4 0 5
-6 12 -12 14 -10 4 -10 6 0 6 8 1 10 6 6 14 -6 9 -5 9 8 0 18 -15 32 -5 18 12
-8 9 -2 20 21 39 17 15 29 32 26 40 -10 25 15 37 37 18 17 -14 18 -14 8 -1
-10 14 -10 18 4 23 13 5 14 9 4 21 -10 12 -8 13 12 10 22 -4 22 -4 4 10 -19
15 -19 16 6 19 6 0 12 10 14 20 1 11 15 31 30 45 15 14 23 20 19 12 -5 -9 -4
-12 3 -7 6 3 9 16 7 27 -4 17 -2 19 11 8 12 -10 13 -9 8 6 -6 14 -4 16 7 10
12 -7 12 -6 1 7 -10 13 -10 18 -1 24 8 4 9 3 5 -4 -4 -7 -2 -12 3 -12 6 0 11
9 11 20 0 11 5 20 10 20 6 0 9 5 8 12 -2 6 8 17 20 24 17 8 20 13 10 18 -7 3
-4 5 8 2 12 -2 21 2 21 10 0 7 -4 11 -8 8 -4 -2 -11 1 -15 7 -4 8 -3 9 4 5 7
-4 12 -2 12 4 0 6 11 15 25 20 14 5 25 13 24 17 -4 27 2 45 15 40 11 -4 13 1
10 19 -3 16 -1 23 6 19 5 -3 10 -1 10 5 0 6 4 9 9 5 6 -3 8 4 6 15 -3 17 0 20
18 16 12 -3 16 -3 9 0 -6 3 -9 11 -6 16 5 7 2 8 -5 3 -10 -6 -11 -3 -2 14 7
11 14 21 17 21 3 0 2 -5 -2 -12 -5 -7 -3 -8 5 -3 9 5 10 10 2 18 -18 18 -12
31 7 16 15 -12 16 -12 6 1 -6 8 -10 25 -9 37 1 18 -1 20 -12 11 -11 -9 -12 -6
-3 17 9 23 8 26 -3 17 -19 -16 -30 -3 -14 16 10 13 9 14 -2 7 -11 -6 -13 -4
-7 11 6 15 4 16 -5 7 -9 -9 -15 -8 -27 3 -8 8 -17 12 -20 9 -4 -3 0 -10 8 -15
8 -6 11 -10 6 -10 -5 0 -18 8 -29 18 -20 16 -20 16 -13 -2 5 -14 3 -16 -6 -9
-7 6 -20 10 -28 10 -8 0 -25 3 -37 7 -15 5 -23 3 -23 -5 0 -8 -4 -8 -13 -1 -8
7 -18 7 -27 2 -21 -13 -33 -12 -24 2 4 6 3 8 -4 4 -5 -3 -12 -3 -15 1 -2 5 -2
2 0 -6z m-87 -17 c0 -8 -19 -13 -24 -6 -3 5 1 9 9 9 8 0 15 -2 15 -3z m-1400
-139 c0 -2 -6 -8 -13 -14 -10 -8 -14 -7 -14 2 0 8 6 14 14 14 7 0 13 -1 13 -2z
m1205 -35 c3 -5 -1 -10 -10 -10 -9 0 -13 5 -10 10 3 6 8 10 10 10 2 0 7 -4 10
-10z m-1298 -136 c-3 -3 -12 -4 -19 -1 -8 3 -5 6 6 6 11 1 17 -2 13 -5z m3
-38 c0 -2 -8 -10 -17 -17 -16 -13 -17 -12 -4 4 13 16 21 21 21 13z m-38 -243
c-10 -4 -10 -8 0 -21 12 -15 11 -16 -4 -3 -19 14 -15 32 5 30 8 0 8 -2 -1 -6z
m-15 -155 c-7 -10 -16 -18 -21 -18 -4 0 -3 6 3 13 6 8 9 16 6 19 -3 2 1 5 9 5
11 0 12 -4 3 -19z m553 -89 c0 -5 -4 -9 -8 -9 -5 0 -9 7 -9 15 0 8 4 12 9 9 4
-3 8 -9 8 -15z m-610 -314 c-8 -10 -9 -15 -1 -15 6 0 11 -4 11 -10 0 -5 -6
-10 -14 -10 -15 0 -15 11 -1 43 4 10 10 16 13 13 3 -3 -1 -12 -8 -21z m-24
-230 c1 -8 -1 -17 -5 -19 -4 -3 -7 6 -7 19 0 25 8 25 12 0z m1109 -143 c-3 -3
-11 0 -18 7 -9 10 -8 11 6 5 10 -3 15 -9 12 -12z m289 -380 c3 -5 -1 -9 -9 -9
-8 0 -12 4 -9 9 3 4 7 8 9 8 2 0 6 -4 9 -8z m-1455 -45 c0 -9 -2 -8 -6 1 -2 6
-10 9 -15 6 -7 -4 -8 -2 -4 5 9 13 26 5 25 -12z m-28 -146 c-6 -10 -7 -22 -3
-26 4 -5 1 -5 -6 -1 -9 5 -9 12 -2 27 6 10 13 19 16 19 2 0 0 -8 -5 -19z
m1616 -28 c-4 -3 -1 -14 7 -22 11 -12 12 -21 5 -31 -9 -13 -10 -12 -5 2 3 11
-3 23 -15 32 -15 10 -17 15 -7 19 19 8 22 8 15 0z m-1644 -138 c4 -8 3 -16 -1
-19 -4 -3 -9 4 -9 15 -2 23 3 25 10 4z m-13 -175 c0 -5 -2 -10 -4 -10 -3 0 -8
5 -11 10 -3 6 -1 10 4 10 6 0 11 -4 11 -10z m-16 -138 c3 -5 -1 -9 -9 -9 -8 0
-12 4 -9 9 3 4 7 8 9 8 2 0 6 -4 9 -8z m621 -42 c-3 -5 -10 -10 -16 -10 -5 0
-9 5 -9 10 0 6 7 10 16 10 8 0 12 -4 9 -10z m650 0 c3 -5 1 -10 -4 -10 -6 0
-11 5 -11 10 0 6 2 10 4 10 3 0 8 -4 11 -10z m-1325 -250 c0 -5 -5 -10 -11
-10 -5 0 -7 5 -4 10 3 6 8 10 11 10 2 0 4 -4 4 -10z m10 -124 c0 -2 -7 -9 -15
-16 -13 -11 -14 -10 -9 4 5 14 24 23 24 12z m1497 -38 c-3 -8 -6 -5 -6 6 -1
11 2 17 5 13 3 -3 4 -12 1 -19z m718 -18 c-3 -5 -12 -10 -18 -10 -7 0 -6 4 3
10 19 12 23 12 15 0z m-2235 -69 c0 -6 -4 -12 -9 -16 -6 -3 -8 -14 -6 -25 2
-12 0 -18 -5 -15 -7 4 -7 26 0 45 1 3 2 8 1 13 0 4 4 7 9 7 6 0 10 -4 10 -9z
m2290 -7 c0 -2 -7 -4 -15 -4 -8 0 -15 4 -15 10 0 5 7 7 15 4 8 -4 15 -8 15
-10z m-2307 -79 c4 -8 3 -16 -1 -19 -4 -3 -9 4 -9 15 -2 23 3 25 10 4z m1608
-8 c-10 -9 -11 -8 -5 6 3 10 9 15 12 12 3 -3 0 -11 -7 -18z m29 -7 c0 -5 -5
-10 -11 -10 -5 0 -7 5 -4 10 3 6 8 10 11 10 2 0 4 -4 4 -10z m648 -34 c-7 -8
-15 -12 -17 -11 -5 6 10 25 20 25 5 0 4 -6 -3 -14z m-320 -132 c-4 -11 -28
-14 -28 -4 0 8 22 20 28 14 2 -1 2 -6 0 -10z m-1998 -54 c0 -5 -5 -10 -11 -10
-5 0 -7 5 -4 10 3 6 8 10 11 10 2 0 4 -4 4 -10z m-1 -83 c8 -10 7 -14 -2 -14
-8 0 -14 6 -14 14 0 7 1 13 2 13 2 0 8 -6 14 -13z"/>
<path d="M2176 4107 c3 -10 9 -15 12 -12 3 3 0 11 -7 18 -10 9 -11 8 -5 -6z"/>
<path d="M2876 4031 c-4 -5 -2 -12 3 -15 5 -4 12 -2 15 3 4 5 2 12 -3 15 -5 4
-12 2 -15 -3z"/>
<path d="M2192 3955 c4 -4 3 -14 -3 -21 -7 -8 -7 -14 1 -19 5 -3 10 -5 11 -3
6 27 5 39 -4 45 -7 3 -9 3 -5 -2z"/>
<path d="M2185 3849 c-11 -16 -1 -19 13 -3 7 8 8 14 3 14 -5 0 -13 -5 -16 -11z"/>
<path d="M3336 3842 c-2 -4 -1 -14 4 -22 7 -11 9 -9 7 8 -1 24 -3 26 -11 14z"/>
<path d="M2696 3788 c3 -5 10 -6 15 -3 13 9 11 12 -6 12 -8 0 -12 -4 -9 -9z"/>
<path d="M2630 3699 c0 -5 5 -7 10 -4 6 3 10 8 10 11 0 2 -4 4 -10 4 -5 0 -10
-5 -10 -11z"/>
<path d="M3220 3678 c-10 -21 -10 -22 3 -5 11 14 16 15 20 5 4 -9 6 -9 6 -1 2
23 -18 23 -29 1z"/>
<path d="M3126 3562 c-2 -4 -1 -14 3 -21 6 -9 11 -10 15 -2 4 6 2 11 -4 11 -6
0 -8 5 -5 10 3 6 4 10 1 10 -3 0 -7 -4 -10 -8z"/>
<path d="M3084 3488 c-12 -14 -13 -18 -3 -10 9 6 18 10 21 7 2 -3 5 2 5 10 0
19 0 19 -23 -7z"/>
<path d="M1560 3440 c6 -10 5 -22 0 -28 -7 -9 -7 -9 2 -2 16 13 17 47 2 47 -9
0 -10 -6 -4 -17z"/>
<path d="M2772 3052 l-23 -37 26 28 c14 15 25 32 25 38 0 14 -3 11 -28 -29z"/>
<path d="M2715 2977 c-14 -11 -15 -16 -5 -22 9 -5 11 -4 6 3 -7 11 6 17 27 13
5 -1 6 3 2 9 -8 13 -8 13 -30 -3z"/>
<path d="M1500 2939 c0 -5 5 -7 10 -4 6 3 10 8 10 11 0 2 -4 4 -10 4 -5 0 -10
-5 -10 -11z"/>
<path d="M2666 2913 c-6 -14 -5 -15 5 -6 7 7 10 15 7 18 -3 3 -9 -2 -12 -12z"/>
<path d="M1464 2626 c1 -8 5 -18 8 -22 4 -3 5 1 4 10 -1 8 -5 18 -8 22 -4 3
-5 -1 -4 -10z"/>
<path d="M2795 2530 c3 -5 8 -10 11 -10 2 0 4 5 4 10 0 6 -5 10 -11 10 -5 0
-7 -4 -4 -10z"/>
<path d="M1438 2473 c10 -4 10 -8 0 -21 -12 -15 -11 -16 4 -3 19 14 15 32 -5
30 -8 0 -8 -2 1 -6z"/>
<path d="M1426 2418 c3 -5 10 -6 15 -3 13 9 11 12 -6 12 -8 0 -12 -4 -9 -9z"/>
<path d="M1420 2376 c0 -2 7 -9 15 -16 9 -7 15 -8 15 -2 0 5 -7 12 -15 16 -8
3 -15 4 -15 2z"/>
<path d="M2193 2251 c0 -11 5 -18 9 -15 4 3 5 11 1 19 -7 21 -12 19 -10 -4z"/>
<path d="M2390 1987 c0 -3 12 -12 26 -22 15 -9 23 -12 20 -6 -7 11 -46 35 -46
28z"/>
<path d="M2450 1918 c15 -16 17 -24 8 -29 -8 -5 -5 -8 8 -7 l22 2 -21 28 c-11
15 -25 28 -29 28 -5 0 0 -10 12 -22z"/>
<path d="M1365 1919 c-4 -6 -5 -12 -2 -15 2 -3 7 2 10 11 7 17 1 20 -8 4z"/>
<path d="M3224 1782 c4 -3 14 -7 22 -8 9 -1 13 0 10 4 -4 3 -14 7 -22 8 -9 1
-13 0 -10 -4z"/>
<path d="M3300 1638 c0 -4 7 -8 15 -8 8 0 15 4 15 8 0 5 -7 9 -15 9 -8 0 -15
-4 -15 -9z"/>
<path d="M1320 1570 c-7 -14 -7 -20 0 -20 5 0 10 7 10 16 0 9 5 12 12 8 7 -4
8 -3 4 4 -10 16 -14 15 -26 -8z"/>
<path d="M1979 1548 c-6 -21 -6 -39 1 -43 5 -3 7 3 6 12 -2 10 2 21 8 25 8 5
7 8 -1 8 -7 0 -13 -1 -14 -2z"/>
<path d="M1327 1525 c-4 -8 -1 -17 6 -21 7 -4 9 -4 5 1 -4 4 -3 14 3 22 7 8 8
13 1 13 -5 0 -12 -7 -15 -15z"/>
<path d="M1306 1458 c3 -4 9 -8 15 -8 5 0 9 4 9 8 0 5 -7 9 -15 9 -8 0 -12 -4
-9 -9z"/>
<path d="M2703 1446 c0 -7 6 -13 14 -13 7 0 13 4 13 8 0 4 -6 9 -13 12 -8 3
-14 0 -14 -7z"/>
<path d="M1969 1428 c-6 -19 -4 -50 4 -55 6 -3 7 -1 3 5 -4 7 -2 12 5 12 8 0
9 3 0 13 -6 8 -8 17 -4 20 3 4 3 7 0 7 -4 0 -7 -1 -8 -2z"/>
<path d="M2760 1343 c5 -2 8 -9 5 -14 -4 -5 -2 -16 3 -25 6 -11 11 -13 16 -5
4 6 2 11 -4 11 -6 0 -10 7 -8 16 2 10 -3 18 -10 20 -7 1 -8 0 -2 -3z"/>
<path d="M1955 1260 c-3 -5 -1 -10 4 -10 6 0 11 5 11 10 0 6 -2 10 -4 10 -3 0
-8 -4 -11 -10z"/>
<path d="M2820 1159 c0 -5 4 -8 9 -4 6 3 14 -3 20 -12 6 -10 11 -13 11 -7 0
12 -20 34 -32 34 -4 0 -8 -5 -8 -11z"/>
<path d="M1941 1074 c0 -11 3 -14 6 -6 3 7 2 16 -1 19 -3 4 -6 -2 -5 -13z"/>
<path d="M1250 960 c-9 -6 -10 -10 -3 -10 6 0 15 5 18 10 8 12 4 12 -15 0z"/>
<path d="M3472 938 c-7 -7 -12 -17 -12 -22 0 -6 5 -3 11 7 6 9 15 14 21 11 7
-4 8 -2 4 4 -9 15 -9 15 -24 0z"/>
<path d="M1250 925 c-7 -9 -8 -15 -2 -15 5 0 12 7 16 15 3 8 4 15 2 15 -2 0
-9 -7 -16 -15z"/>
<path d="M1935 931 c-3 -5 -2 -12 3 -15 5 -3 9 1 9 9 0 17 -3 19 -12 6z"/>
<path d="M2987 911 c-4 -17 -3 -21 5 -13 5 5 8 16 6 23 -3 8 -7 3 -11 -10z"/>
<path d="M3316 882 c-3 -5 1 -9 9 -9 8 0 12 4 9 9 -3 4 -7 8 -9 8 -2 0 -6 -4
-9 -8z"/>
<path d="M3110 856 c0 -2 7 -7 16 -10 8 -3 12 -2 9 4 -6 10 -25 14 -25 6z"/>
<path d="M1915 800 c-4 -6 1 -7 11 -3 13 5 15 3 9 -7 -5 -9 -4 -11 4 -6 6 4 9
12 6 17 -8 12 -22 12 -30 -1z"/>
<path d="M1228 663 c7 -3 16 -2 19 1 4 3 -2 6 -13 5 -11 0 -14 -3 -6 -6z"/>
<path d="M1857 622 c-15 -16 -15 -19 -2 -19 8 0 13 3 10 5 -3 3 0 11 6 19 17
20 5 16 -14 -5z"/>
<path d="M1681 536 c-9 -11 -9 -16 0 -22 8 -4 9 -3 5 4 -7 11 6 17 27 13 5 -1
6 3 2 9 -9 14 -20 13 -34 -4z"/>
<path d="M1651 514 c0 -11 3 -14 6 -6 3 7 2 16 -1 19 -3 4 -6 -2 -5 -13z"/>
<path d="M1263 479 c-2 -23 3 -25 10 -4 4 8 3 16 -1 19 -4 3 -9 -4 -9 -15z"/>
<path d="M1401 456 c-9 -11 -9 -16 1 -22 7 -4 10 -4 6 1 -4 4 -3 14 3 22 6 7
9 13 6 13 -2 0 -10 -6 -16 -14z"/>
<path d="M1336 451 c-4 -5 -2 -12 3 -15 5 -4 12 -2 15 3 4 5 2 12 -3 15 -5 4
-12 2 -15 -3z"/>
</g>
</svg>
